<?xml version="1.0" encoding="UTF-8"?>
<svg version="1.1" xmlns="http://www.w3.org/2000/svg" width="159" height="224">
<path d="M0 0 C10.89 0 21.78 0 33 0 C31.96875 2.949375 30.9375 5.89875 29.875 8.9375 C29.5351709 9.91460937 29.1953418 10.89171875 28.84521484 11.8984375 C27.32586686 16.26100487 25.78382059 20.61111031 24.1640625 24.9375 C23.88320801 25.69812744 23.60235352 26.45875488 23.31298828 27.24243164 C22.78237812 28.67507908 22.24210076 30.10419367 21.69091797 31.52905273 C20.29754339 35.32432622 19.27469357 38.20841748 21 42 C23.3777145 43.48198619 23.3777145 43.48198619 26.3125 44.3125 C27.27800781 44.63863281 28.24351563 44.96476562 29.23828125 45.30078125 C32.17146501 46.16362545 32.17146501 46.16362545 36 46 C36.33 44.68 36.66 43.36 37 42 C37.66 42 38.32 42 39 42 C39.15710449 41.44054687 39.31420898 40.88109375 39.47607422 40.3046875 C41.66871748 32.73314491 44.36259199 25.37968942 47.125 18 C47.58003906 16.77410156 48.03507812 15.54820312 48.50390625 14.28515625 C51.84905979 5.30188041 51.84905979 5.30188041 53 3 C50.36 2.34 47.72 1.68 45 1 C45 0.67 45 0.34 45 0 C59.19 0 73.38 0 88 0 C88.15202121 7.49581484 88.30282704 14.99149704 88.44254303 22.48752594 C88.50795525 25.97930433 88.5754424 29.47101263 88.64819336 32.96264648 C88.73182912 36.98149715 88.80557268 41.00047929 88.87890625 45.01953125 C88.90594131 46.25331009 88.93297638 47.48708893 88.96083069 48.758255 C89.01898629 52.17413502 89.02848237 55.58381396 89 59 C88.9983786 60.03571136 88.9967572 61.07142273 88.99508667 62.13851929 C88.95795563 63.10303009 88.92082458 64.06754089 88.88256836 65.0612793 C88.85827255 65.8980571 88.83397675 66.7348349 88.8089447 67.5969696 C87.58705946 71.22667058 85.28249411 73.22670304 82 75 C79.05840328 75.46125227 76.71656464 75.63818893 73.79150391 75.56762695 C72.59050049 75.56872215 72.59050049 75.56872215 71.36523438 75.56983948 C68.73497302 75.56637309 66.10651206 75.52755941 63.4765625 75.48828125 C61.64668749 75.47894969 59.81679995 75.4718352 57.98690796 75.46684265 C53.18289382 75.44779978 48.37964183 75.39872258 43.57592773 75.34332275 C37.8057378 75.28305251 32.03529228 75.2602011 26.26487732 75.23105621 C17.509389 75.18265569 8.7555712 75.08682254 0 75 C0 50.25 0 25.5 0 0 Z M20 46 C20.12375 47.959375 20.2475 49.91875 20.375 51.9375 C20.44460937 53.03964844 20.51421875 54.14179688 20.5859375 55.27734375 C20.72257812 56.17582031 20.85921875 57.07429688 21 58 C21.66 58.33 22.32 58.66 23 59 C24.31587941 57.87895467 25.62760353 56.75303035 26.9375 55.625 C27.66839844 54.99851562 28.39929688 54.37203125 29.15234375 53.7265625 C31.08380906 52.12252286 31.08380906 52.12252286 32 50 C28.04 48.68 24.08 47.36 20 46 Z " fill="#F7F7F7" transform="translate(53,136)"/>
<path d="M0 0 C20.51342771 -0.20054405 20.51342771 -0.20054405 29.25976562 -0.24414062 C35.22719559 -0.27402654 41.19424186 -0.30937503 47.16137695 -0.37719727 C51.97246313 -0.43153748 56.78313783 -0.46142488 61.59450722 -0.47438622 C63.42976675 -0.48362249 65.26500384 -0.50165908 67.10008812 -0.52865028 C69.67163058 -0.56496822 72.24147462 -0.56994434 74.81323242 -0.56762695 C75.57136734 -0.58560333 76.32950226 -0.60357971 77.11061096 -0.62210083 C81.05751011 -0.5836345 82.82721273 -0.13481532 85.97619629 2.32214355 C88.62559675 5.82777706 88.57801098 7.9086662 88.48828125 12.26953125 C88.48120651 12.95053391 88.47413177 13.63153656 88.46684265 14.33317566 C88.43900069 16.49409995 88.37629527 18.65236822 88.3125 20.8125 C88.28740332 22.28316552 88.26459253 23.75387193 88.24414062 25.22460938 C88.19346908 28.81823565 88.09563711 32.40617011 88 36 C82.72 36 77.44 36 72 36 C71.609375 33.49348958 71.21875 30.98697917 70.828125 28.48046875 C69.8144418 25.44420067 68.75477779 24.56104075 66 23 C62.02526993 22.58596562 59.35512466 22.81916897 56 25 C54.66653971 27.15744233 54.66653971 27.15744233 53.75 29.625 C53.41484375 30.44226563 53.0796875 31.25953125 52.734375 32.1015625 C52.49203125 32.72804687 52.2496875 33.35453125 52 34 C54.97 34.495 54.97 34.495 58 35 C58 35.33 58 35.66 58 36 C38.86 36 19.72 36 0 36 C0 24.12 0 12.24 0 0 Z " fill="#F6F6F6" transform="translate(53,49)"/>
<path d="M0 0 C2.31 1.98 4.62 3.96 7 6 C8.32 6.66 9.64 7.32 11 8 C11.55429687 7.4225 12.10859375 6.845 12.6796875 6.25 C13.40414062 5.5075 14.12859375 4.765 14.875 4 C15.59429687 3.2575 16.31359375 2.515 17.0546875 1.75 C19 0 19 0 21 0 C21 8.58 21 17.16 21 26 C23.21549561 25.97905273 25.43099121 25.95810547 27.71362305 25.93652344 C35.03771893 25.8702124 42.36182816 25.82604827 49.68614483 25.79275131 C54.12645549 25.7718861 58.5664583 25.74358823 63.0065918 25.69824219 C67.29247369 25.65474594 71.57805968 25.63085487 75.86414528 25.62049103 C77.49842804 25.6131064 79.13269481 25.59868575 80.76685143 25.57707977 C83.05805694 25.54799441 85.34804355 25.54404597 87.6394043 25.54589844 C89.59465279 25.53257477 89.59465279 25.53257477 91.58940125 25.51898193 C95.59958301 26.08456294 97.23465558 27.07793126 100 30 C100.8125 32.25 100.8125 32.25 101 34 C89.36746256 34.15512875 77.73485795 34.30328038 66.10212421 34.4429636 C60.69832364 34.50806109 55.29457196 34.57540025 49.89086914 34.64819336 C44.65835977 34.71859232 39.42580502 34.78267107 34.19316673 34.84269524 C32.21486883 34.86643638 30.23659508 34.89230722 28.25835609 34.92053413 C17.90786689 35.0667645 7.58370299 35.05179412 -2.76098633 34.63256836 C-3.66040545 34.60126863 -4.55982458 34.56996889 -5.48649883 34.53772068 C-6.31283731 34.49831836 -7.13917578 34.45891603 -7.99055481 34.4183197 C-8.71872312 34.38612807 -9.44689142 34.35393644 -10.19712543 34.32076931 C-12 34 -12 34 -14 32 C-14.33 33.32 -14.66 34.64 -15 36 C-4.77 36.33 5.46 36.66 16 37 C16 48.88 16 60.76 16 73 C8.08 73 0.16 73 -8 73 C-8.33 66.73 -8.66 60.46 -9 54 C-9.66 54 -10.32 54 -11 54 C-11.33 60.27 -11.66 66.54 -12 73 C-15.63 73 -19.26 73 -23 73 C-23.07448116 67.71642089 -23.12875795 62.43315137 -23.16479492 57.14916992 C-23.17982716 55.35386833 -23.20025857 53.55860312 -23.22631836 51.76342773 C-23.26294786 49.17422474 -23.2797821 46.58550972 -23.29296875 43.99609375 C-23.30845261 43.20101913 -23.32393646 42.40594452 -23.33988953 41.58677673 C-23.34146291 36.30780242 -22.46130733 32.69185542 -20 28 C-18 26 -18 26 -16.12060547 25.77294922 C-15.37697754 25.78342285 -14.63334961 25.79389648 -13.8671875 25.8046875 C-12.77833252 25.81218018 -12.77833252 25.81218018 -11.66748047 25.81982422 C-10.28520264 25.84713623 -10.28520264 25.84713623 -8.875 25.875 C-5.94625 25.91625 -3.0175 25.9575 0 26 C0 17.42 0 8.84 0 0 Z " fill="#EDEDED" transform="translate(33,12)"/>
<path d="M0 0 C3.63 0 7.26 0 11 0 C12.19388403 41.23980265 12.19388403 41.23980265 12 58 C12.66 58 13.32 58 14 58 C14.33 38.86 14.66 19.72 15 0 C22.92 0 30.84 0 39 0 C39 24.75 39 49.5 39 75 C7 75 7 75 2 72 C-0.20689553 68.14544165 -0.24355281 64.66327044 -0.22705078 60.28198242 C-0.22734283 59.62776306 -0.22763489 58.9735437 -0.22793579 58.29949951 C-0.22654982 56.15135121 -0.21102371 54.00355596 -0.1953125 51.85546875 C-0.19157975 50.3604603 -0.18873402 48.8654494 -0.18673706 47.37043762 C-0.17912118 43.44622986 -0.15949041 39.52217145 -0.1373291 35.59802246 C-0.11682649 31.5894574 -0.10772592 27.58086807 -0.09765625 23.57226562 C-0.07624245 15.71477541 -0.04213138 7.85740631 0 0 Z " fill="#EDEDED" transform="translate(10,136)"/>
<path d="M0 0 C2.97 0 5.94 0 9 0 C9.12375 0.9590625 9.12375 0.9590625 9.25 1.9375 C9.91758021 4.66345254 10.733491 6.47790281 12 8.9375 C14.46873196 14.19465584 14.56557296 19.31869752 14.7265625 25.05859375 C14.69549166 28.12123806 14.69549166 28.12123806 17 30 C13.04 30 9.08 30 5 30 C6.32 29.34 7.64 28.68 9 28 C8.96950723 17.6934451 7.62838002 7.62838002 0 0 Z " fill="#C7C7C7" transform="translate(121,96)"/>
<path d="M0 0 C6.54185022 0.4845815 6.54185022 0.4845815 8.5 2.6875 C9.17152126 5.79328582 8.82925437 7.9381377 8 11 C6.4375 13.375 6.4375 13.375 5 15 C5.639375 15.28875 6.27875 15.5775 6.9375 15.875 C9 17 9 17 10 19 C10.38169851 23.04600418 10.36064827 25.34805889 8.375 28.9375 C6 31 6 31 2.75 31.3125 C1.8425 31.209375 0.935 31.10625 0 31 C0.99 29.9790625 0.99 29.9790625 2 28.9375 C4.49760663 25.26914026 4.6338947 23.35802608 4 19 C2.10415891 16.68622853 2.10415891 16.68622853 0 15 C0 14.34 0 13.68 0 13 C0.495 12.5875 0.99 12.175 1.5 11.75 C3.27255701 10.00631913 3.27255701 10.00631913 3.375 7.0625 C2.96940652 3.75015327 2.23079726 2.41669703 0 0 Z " fill="#CDCDCD" transform="translate(27,96)"/>
<path d="M0 0 C2.97 0 5.94 0 9 0 C8.67 10.23 8.34 20.46 8 31 C5.36 31 2.72 31 0 31 C0.48895752 30.29335205 0.97791504 29.5867041 1.48168945 28.85864258 C3.1815027 25.6582706 3.3505548 23.85124897 3.29296875 20.26171875 C3.28330078 19.19501953 3.27363281 18.12832031 3.26367188 17.02929688 C3.23853516 15.92650391 3.21339844 14.82371094 3.1875 13.6875 C3.17396484 12.56537109 3.16042969 11.44324219 3.14648438 10.28710938 C3.1112138 7.52424771 3.06192235 4.76237171 3 2 C2.01 2 1.02 2 0 2 C0 1.34 0 0.68 0 0 Z " fill="#D6D6D6" transform="translate(38,95)"/>
<path d="M0 0 C0.99 0.33 1.98 0.66 3 1 C2.67620361 1.56605957 2.35240723 2.13211914 2.01879883 2.71533203 C0.27411492 6.62780555 0.67226213 10.65106363 0.6875 14.875 C0.67138672 15.76058594 0.65527344 16.64617187 0.63867188 17.55859375 C0.63475297 22.81776886 1.13175342 26.41383265 4 31 C0.41579626 30.80087757 -0.77839715 30.24006976 -3.25 27.5625 C-6.53801037 20.86905031 -6.58813597 14.14928406 -4.74609375 6.984375 C-3.68780284 4.16965362 -2.07604216 2.14524356 0 0 Z " fill="#C8C8C8" transform="translate(64,96)"/>
<path d="M0 0 C0.5775 0.226875 1.155 0.45375 1.75 0.6875 C1.13125 1.05875 0.5125 1.43 -0.125 1.8125 C-3.44067289 4.73809372 -4.06501374 7.720804 -4.47265625 12.0546875 C-4.69862864 18.51946293 -3.94788049 23.58993352 0.4375 28.625 C1.0871875 29.1509375 1.0871875 29.1509375 1.75 29.6875 C-4.61734694 29.32015306 -4.61734694 29.32015306 -7.625 26.3125 C-10.74730655 21.26877404 -10.87436997 16.46933697 -10.25 10.6875 C-8.9561872 6.69209881 -7.16953628 3.63577178 -4.25 0.625 C-2.25 -0.3125 -2.25 -0.3125 0 0 Z " fill="#D4D4D4" transform="translate(91.25,96.3125)"/>
<path d="M0 0 C-0.61875 0.495 -1.2375 0.99 -1.875 1.5 C-5.8662636 6.19560424 -6.23631246 11.26295493 -5.8125 17.1875 C-5.16160799 22.23191309 -3.60691471 25.39308529 0 29 C-2.125 29.4375 -2.125 29.4375 -5 29 C-9.48055562 25.01251988 -11.83838873 21.38376617 -12.25 15.3125 C-12.16718877 10.81585003 -11.31804509 6.88916453 -9 3 C-3.94736842 -1.31578947 -3.94736842 -1.31578947 0 0 Z " fill="#D3D3D3" transform="translate(114,97)"/>
<path d="M0 0 C2.97 0 5.94 0 9 0 C9 9.9 9 19.8 9 30 C6.36 30 3.72 30 1 30 C1.66 29.67 2.32 29.34 3 29 C3.08674429 24.54178834 3.14030513 20.08379196 3.1875 15.625 C3.21263672 14.35398437 3.23777344 13.08296875 3.26367188 11.7734375 C3.27333984 10.56171875 3.28300781 9.35 3.29296875 8.1015625 C3.3086792 6.98088379 3.32438965 5.86020508 3.34057617 4.70556641 C3.22818604 3.81272949 3.1157959 2.91989258 3 2 C2.01 1.34 1.02 0.68 0 0 Z " fill="#D5D5D5" transform="translate(17,96)"/>
<path d="M0 0 C4.30614589 0.47846065 6.24880549 1.65926381 9 5 C10.14330513 8.42991538 10.20381651 11.1986416 10.25 14.8125 C10.28867188 16.61654297 10.28867188 16.61654297 10.328125 18.45703125 C9.84858967 23.63487104 7.96747167 27.59931 4 31 C3.01 30.67 2.02 30.34 1 30 C1.48984375 29.19820312 1.9796875 28.39640625 2.484375 27.5703125 C4.36870143 23.13146107 4.37408928 19.62917072 4.25 14.875 C4.24226563 13.67810547 4.24226563 13.67810547 4.234375 12.45703125 C4.22841803 7.13418598 4.22841803 7.13418598 3 2 C2.01 1.67 1.02 1.34 0 1 C0 0.67 0 0.34 0 0 Z " fill="#CCCCCC" transform="translate(68,95)"/>
<path d="M0 0 C1.98 0 3.96 0 6 0 C6 4.95 6 9.9 6 15 C4.02 15 2.04 15 0 15 C0 10.05 0 5.1 0 0 Z " fill="#D3D3D3" transform="translate(144,171)"/>
<path d="M0 0 C1.98 0 3.96 0 6 0 C6 4.95 6 9.9 6 15 C4.02 15 2.04 15 0 15 C0 10.05 0 5.1 0 0 Z " fill="#D3D3D3" transform="translate(144,152)"/>
<path d="M0 0 C2.97 0 5.94 0 9 0 C9 3.96 9 7.92 9 12 C9.66 12.33 10.32 12.66 11 13 C8.69 13 6.38 13 4 13 C4 9.37 4 5.74 4 2 C2.68 1.34 1.36 0.68 0 0 Z " fill="#D9D9D9" transform="translate(90,113)"/>
<path d="M0 0 C1.98 0 3.96 0 6 0 C6 3.63 6 7.26 6 11 C4.02 11 2.04 11 0 11 C0 7.37 0 3.74 0 0 Z " fill="#D8D8D8" transform="translate(144,136)"/>
<path d="M0 0 C2.97 0 5.94 0 9 0 C8.98839844 0.77085938 8.97679688 1.54171875 8.96484375 2.3359375 C8.95582031 3.33882813 8.94679688 4.34171875 8.9375 5.375 C8.92589844 6.37273437 8.91429688 7.37046875 8.90234375 8.3984375 C8.81993398 10.98432453 8.81993398 10.98432453 10 13 C7.69 13 5.38 13 3 13 C3.33 9.37 3.66 5.74 4 2 C2.68 1.67 1.36 1.34 0 1 C0 0.67 0 0.34 0 0 Z " fill="#CACACA" transform="translate(112,113)"/>
<path d="M0 0 C0.66 0.33 1.32 0.66 2 1 C2.31390173 5.002247 2.34116018 7.38328737 0.375 10.9375 C-2 13 -2 13 -5.25 13.3125 C-6.1575 13.209375 -7.065 13.10625 -8 13 C-7.21625 12.13375 -6.4325 11.2675 -5.625 10.375 C-3.15855652 7.44174377 -2.03565903 4.71111151 -1 1 C-0.67 0.67 -0.34 0.34 0 0 Z " fill="#E5E5E5" transform="translate(35,114)"/>
<path d="M0 0 C1.65 0 3.3 0 5 0 C5 0.66 5 1.32 5 2 C6.32 2.66 7.64 3.32 9 4 C8.01 5.485 8.01 5.485 7 7 C6.61500109 8.65549531 6.27206865 10.3222433 6 12 C5.67 12 5.34 12 5 12 C4.57682292 9.98177083 4.15364583 7.96354167 3.73046875 5.9453125 C3.07691162 3.62953451 3.07691162 3.62953451 0 2 C0 1.34 0 0.68 0 0 Z " fill="#B8B8B8" transform="translate(27,109)"/>
<path d="M0 0 C0.33 0 0.66 0 1 0 C1.33 2.64 1.66 5.28 2 8 C3.96822886 6.03177114 3.66248381 2.65191291 4 0 C4.33 0 4.66 0 5 0 C5 3.3 5 6.6 5 10 C5.66 10.33 6.32 10.66 7 11 C4.69 11 2.38 11 0 11 C0 7.37 0 3.74 0 0 Z " fill="#8D8D8D" transform="translate(94,115)"/>
<path d="M0 0 C-0.86625 1.0209375 -0.86625 1.0209375 -1.75 2.0625 C-4.19835514 5.25896365 -6.06450515 8.47463438 -8 12 C-9.13643966 8.59068103 -8.86747764 7.99664544 -7.5625 4.8125 C-7.27503906 4.09707031 -6.98757812 3.38164063 -6.69140625 2.64453125 C-6.46324219 2.10183594 -6.23507813 1.55914062 -6 1 C-6.66 0.67 -7.32 0.34 -8 0 C-2.25 -1.125 -2.25 -1.125 0 0 Z " fill="#A0A0A0" transform="translate(144,97)"/>
<path d="M0 0 C0.33 0 0.66 0 1 0 C1.0270043 1.45823212 1.04639787 2.91660675 1.0625 4.375 C1.07410156 5.18710938 1.08570313 5.99921875 1.09765625 6.8359375 C1 9 1 9 0 11 C-2.97 11 -5.94 11 -9 11 C-6 9 -6 9 -2 9 C-1.34 6.03 -0.68 3.06 0 0 Z " fill="#A1A1A1" transform="translate(56,115)"/>
<path d="M0 0 C0.66 0.66 1.32 1.32 2 2 C1.9765625 4.3828125 1.9765625 4.3828125 1.625 7.125 C1.51414062 8.03507812 1.40328125 8.94515625 1.2890625 9.8828125 C1.19367188 10.58148438 1.09828125 11.28015625 1 12 C0.34 11.67 -0.32 11.34 -1 11 C-1.33926947 8.66752239 -1.67240066 6.33414529 -2 4 C-2.66 3.34 -3.32 2.68 -4 2 C-2.68 1.34 -1.36 0.68 0 0 Z " fill="#8D8D8D" transform="translate(98,94)"/>
<path d="M0 0 C-2 2 -4 4 -6 6 C-6.66 6 -7.32 6 -8 6 C-8.99 6.495 -8.99 6.495 -10 7 C-9.02640613 3.72518425 -8.30933359 2.23794891 -5.5625 0.125 C-3 -1 -3 -1 0 0 Z " fill="#ADADAD" transform="translate(114,97)"/>
<path d="M0 0 C0 3.96 0 7.92 0 12 C-2 10 -2 10 -2.125 6.375 C-2.08375 5.26125 -2.0425 4.1475 -2 3 C-2.99 2.67 -3.98 2.34 -5 2 C-1.125 0 -1.125 0 0 0 Z " fill="#A0A0A0" transform="translate(120,94)"/>
<path d="M0 0 C0.99 0.66 1.98 1.32 3 2 C2.67 2.99 2.34 3.98 2 5 C0.02 5 -1.96 5 -4 5 C-2.68 3.35 -1.36 1.7 0 0 Z " fill="#BCBCBC" transform="translate(31,122)"/>
<path d="M0 0 C2.3125 0.1875 2.3125 0.1875 4 1 C1.02819057 2.89865603 -1.51460083 4.35455571 -5 5 C-2.75 2.4375 -2.75 2.4375 0 0 Z " fill="#959595" transform="translate(89,96)"/>
<path d="" fill="#000000" transform="translate(0,0)"/>
<path d="" fill="#000000" transform="translate(0,0)"/>
<path d="" fill="#000000" transform="translate(0,0)"/>
<path d="" fill="#000000" transform="translate(0,0)"/>
<path d="" fill="#000000" transform="translate(0,0)"/>
<path d="" fill="#010000" transform="translate(0,0)"/>
<path d="" fill="#000000" transform="translate(0,0)"/>
<path d="" fill="#000000" transform="translate(0,0)"/>
<path d="" fill="#000000" transform="translate(0,0)"/>
<path d="" fill="#000000" transform="translate(0,0)"/>
<path d="" fill="#000000" transform="translate(0,0)"/>
<path d="" fill="#000000" transform="translate(0,0)"/>
<path d="" fill="#000000" transform="translate(0,0)"/>
<path d="" fill="#000000" transform="translate(0,0)"/>
<path d="" fill="#000000" transform="translate(0,0)"/>
<path d="" fill="#000000" transform="translate(0,0)"/>
<path d="" fill="#000000" transform="translate(0,0)"/>
<path d="" fill="#000000" transform="translate(0,0)"/>
<path d="" fill="#000000" transform="translate(0,0)"/>
<path d="" fill="#000000" transform="translate(0,0)"/>
<path d="" fill="#000000" transform="translate(0,0)"/>
<path d="" fill="#000000" transform="translate(0,0)"/>
<path d="" fill="#000000" transform="translate(0,0)"/>
<path d="" fill="#000000" transform="translate(0,0)"/>
<path d="" fill="#000000" transform="translate(0,0)"/>
<path d="" fill="#000000" transform="translate(0,0)"/>
<path d="" fill="#000000" transform="translate(0,0)"/>
<path d="" fill="#000000" transform="translate(0,0)"/>
<path d="" fill="#000000" transform="translate(0,0)"/>
<path d="" fill="#000000" transform="translate(0,0)"/>
<path d="" fill="#010000" transform="translate(0,0)"/>
<path d="" fill="#000000" transform="translate(0,0)"/>
<path d="" fill="#000000" transform="translate(0,0)"/>
<path d="" fill="#000000" transform="translate(0,0)"/>
<path d="" fill="#000000" transform="translate(0,0)"/>
<path d="" fill="#000000" transform="translate(0,0)"/>
<path d="" fill="#000000" transform="translate(0,0)"/>
<path d="" fill="#000000" transform="translate(0,0)"/>
<path d="" fill="#000000" transform="translate(0,0)"/>
</svg>
